<svg xmlns="http://www.w3.org/2000/svg" xmlns:xlink="http://www.w3.org/1999/xlink" width="500" zoomAndPan="magnify" viewBox="0 0 375 374.999991" height="500" preserveAspectRatio="xMidYMid meet" version="1.0"><defs><clipPath id="41a3bdfb57"><path d="M 290 81.152344 L 362.542969 81.152344 L 362.542969 157 L 290 157 Z M 290 81.152344 " clip-rule="nonzero"/></clipPath><clipPath id="634913f79e"><path d="M 125 159 L 292 159 L 292 340.480469 L 125 340.480469 Z M 125 159 " clip-rule="nonzero"/></clipPath><clipPath id="81cfdbb0e3"><path d="M 316 81.152344 L 362.542969 81.152344 L 362.542969 154 L 316 154 Z M 316 81.152344 " clip-rule="nonzero"/></clipPath><clipPath id="876999897d"><path d="M 98 240 L 135 240 L 135 278.46875 L 98 278.46875 Z M 98 240 " clip-rule="nonzero"/></clipPath><clipPath id="b25797f1a6"><path d="M 32 188 L 69 188 L 69 226.148438 L 32 226.148438 Z M 32 188 " clip-rule="nonzero"/></clipPath><clipPath id="b118b1bff6"><path d="M 120 51 L 156 51 L 156 89.4375 L 120 89.4375 Z M 120 51 " clip-rule="nonzero"/></clipPath><clipPath id="7544457e6c"><path d="M 53 107 L 90 107 L 90 145.125 L 53 145.125 Z M 53 107 " clip-rule="nonzero"/></clipPath><clipPath id="9df3c71481"><path d="M 290 81.152344 L 362.542969 81.152344 L 362.542969 157 L 290 157 Z M 290 81.152344 " clip-rule="nonzero"/></clipPath><clipPath id="82cf844dc4"><path d="M 201.300781 159 L 292 159 L 292 223.839844 L 201.300781 223.839844 Z M 201.300781 159 " clip-rule="nonzero"/></clipPath><clipPath id="91b921b585"><path d="M 316 81.152344 L 362.542969 81.152344 L 362.542969 154 L 316 154 Z M 316 81.152344 " clip-rule="nonzero"/></clipPath><clipPath id="9f5bdb1190"><rect x="0" width="363" y="0" height="341"/></clipPath></defs><g transform="matrix(1, 0, 0, 1, 7, 14)"><g clip-path="url(#9f5bdb1190)"><g clip-path="url(#41a3bdfb57)"><path fill="#fffffe" d="M 290.664062 140.386719 C 290.664062 140.386719 288.460938 122.515625 308.328125 102.925781 C 328.195312 83.335938 348.953125 97.050781 360.113281 81.148438 C 360.113281 81.148438 360.769531 97.625 344.980469 107.902344 C 344.980469 107.902344 355.429688 108.324219 362.421875 102.195312 C 362.421875 102.195312 350.042969 155.800781 308.144531 156.1875 C 308.144531 156.195312 295.292969 161.179688 290.664062 140.386719 Z M 290.664062 140.386719 " fill-opacity="1" fill-rule="nonzero"/></g><g clip-path="url(#634913f79e)"><path fill="#b26e50" d="M 291.277344 174.839844 L 273.800781 159.035156 C 273.800781 159.035156 117.300781 331.652344 126.257812 339.761719 C 135.214844 347.871094 291.277344 174.839844 291.277344 174.839844 Z M 291.277344 174.839844 " fill-opacity="1" fill-rule="nonzero"/></g><path fill="#e5d7c4" d="M 290.671875 140.378906 L 308.152344 156.1875 L 284.085938 182.800781 L 266.605469 166.996094 Z M 290.671875 140.378906 " fill-opacity="1" fill-rule="nonzero"/><g clip-path="url(#81cfdbb0e3)"><path fill="#4c6a4b" d="M 362.421875 102.199219 C 355.429688 108.34375 344.980469 107.90625 344.980469 107.90625 C 360.769531 97.632812 360.113281 81.152344 360.113281 81.152344 C 350.550781 94.777344 333.9375 86.675781 316.867188 96.398438 C 316.851562 98.585938 317.253906 100.691406 318.066406 102.722656 C 318.878906 104.75 320.042969 106.550781 321.5625 108.125 C 324.148438 110.742188 327.703125 112.648438 329.039062 116.089844 C 330.25 119.265625 329.128906 122.878906 327.363281 125.792969 C 325.597656 128.707031 323.269531 131.203125 321.683594 134.203125 C 320.949219 135.636719 320.402344 137.140625 320.042969 138.714844 C 319.683594 140.285156 319.527344 141.878906 319.570312 143.492188 C 319.609375 145.105469 319.851562 146.6875 320.289062 148.238281 C 320.726562 149.789062 321.351562 151.261719 322.160156 152.660156 C 322.355469 152.992188 322.566406 153.324219 322.789062 153.648438 C 353 142.980469 362.421875 102.199219 362.421875 102.199219 Z M 362.421875 102.199219 " fill-opacity="1" fill-rule="nonzero"/></g><path fill="#e5d7c4" d="M 249.824219 238.867188 C 246.871094 242.144531 243.570312 245.371094 239.378906 246.703125 C 231.234375 249.289062 222.863281 244.09375 215.882812 239.140625 C 213.9375 237.761719 211.929688 236.316406 210.738281 234.238281 C 200.582031 216.472656 233.222656 200.367188 246.554688 200.972656 C 273.449219 202.191406 261.332031 226.082031 249.824219 238.867188 Z M 299.6875 196.875 C 299.894531 195.617188 300.082031 194.355469 300.246094 193.09375 C 300.964844 187.601562 301.191406 181.628906 298.238281 176.953125 C 285.792969 157.203125 250.296875 171.007812 232.3125 170.546875 C 218.316406 170.191406 223.613281 154.246094 228.453125 146.367188 C 246.050781 117.75 297.585938 110.117188 292.078125 68.839844 C 289.59375 50.210938 273.230469 39.128906 258.308594 30.003906 C 241.820312 19.917969 223.425781 13.554688 204.511719 10.070312 C 201.203125 9.460938 197.882812 8.941406 194.550781 8.503906 C 168.0625 5.027344 140.714844 7.628906 115.582031 16.859375 C 65.292969 35.324219 25.472656 79.554688 11.058594 131.273438 C 3.113281 159.792969 0.273438 190.121094 8.308594 218.964844 C 15.746094 245.640625 37.507812 264.910156 61.382812 277.21875 C 73.589844 283.507812 86.574219 288.230469 99.808594 291.800781 C 131.535156 300.367188 165.175781 303.503906 197.328125 296.734375 C 247.15625 286.246094 291.144531 248.863281 299.6875 196.875 " fill-opacity="1" fill-rule="nonzero"/><path fill="#fff8f0" d="M 248 233.234375 C 245.050781 236.511719 241.746094 239.734375 237.554688 241.066406 C 229.410156 243.65625 221.039062 238.457031 214.058594 233.511719 C 212.113281 232.128906 210.105469 230.679688 208.917969 228.605469 C 198.757812 210.839844 231.398438 194.730469 244.730469 195.335938 C 271.628906 196.558594 259.507812 220.449219 248 233.234375 Z M 297.863281 191.242188 C 298.070312 189.984375 298.257812 188.722656 298.421875 187.460938 C 299.140625 181.96875 299.367188 175.996094 296.414062 171.316406 C 283.964844 151.570312 248.472656 165.371094 230.488281 164.914062 C 216.492188 164.5625 221.789062 148.613281 226.632812 140.734375 C 244.226562 112.113281 295.761719 104.484375 290.253906 63.207031 C 287.765625 44.578125 271.40625 33.496094 256.484375 24.371094 C 239.996094 14.285156 221.601562 7.921875 202.6875 4.441406 C 199.378906 3.828125 196.058594 3.308594 192.726562 2.871094 C 166.238281 -0.609375 138.890625 1.996094 113.753906 11.226562 C 63.46875 29.691406 23.644531 73.921875 9.238281 125.636719 C 1.289062 154.160156 -1.554688 184.488281 6.484375 213.332031 C 13.921875 240.007812 35.683594 259.277344 59.5625 271.582031 C 71.765625 277.875 84.75 282.59375 97.988281 286.167969 C 129.710938 294.734375 163.351562 297.871094 195.5 291.105469 C 245.332031 280.613281 289.320312 243.230469 297.863281 191.242188 " fill-opacity="1" fill-rule="nonzero"/><path fill="#4527a0" d="M 146.566406 228.238281 C 146.101562 229.820312 145.304688 231.417969 144.132812 233.019531 C 139.058594 240.011719 127.585938 244.085938 120.242188 242.523438 C 118.792969 242.226562 117.488281 241.707031 116.449219 240.945312 C 113.789062 239.007812 112.097656 235.101562 111.503906 230.601562 C 110.667969 224.367188 111.894531 217.003906 115.425781 212.148438 C 115.761719 211.699219 116.09375 211.273438 116.449219 210.863281 C 117.304688 209.859375 118.234375 209.023438 119.183594 208.351562 C 124.890625 204.351562 132.046875 205.953125 138.460938 210.621094 C 144.875 215.292969 148.59375 221.578125 146.566406 228.238281 Z M 146.566406 228.238281 " fill-opacity="1" fill-rule="nonzero"/><path fill="#311b92" d="M 125.355469 228.089844 C 125.113281 234.226562 123.289062 239.363281 120.242188 242.523438 C 118.792969 242.226562 117.488281 241.707031 116.449219 240.945312 C 110.070312 236.3125 109.347656 220.519531 115.425781 212.148438 C 116.578125 210.566406 117.84375 209.300781 119.183594 208.351562 C 119.648438 208.855469 120.074219 209.394531 120.484375 209.972656 C 123.847656 214.601562 125.613281 221.207031 125.355469 228.089844 Z M 125.355469 228.089844 " fill-opacity="1" fill-rule="nonzero"/><path fill="#4527a0" d="M 121.394531 230.601562 C 120.800781 235.101562 119.109375 239.007812 116.449219 240.945312 C 110.070312 245.574219 94.84375 241.390625 88.765625 233.019531 C 87.59375 231.417969 86.792969 229.820312 86.328125 228.238281 C 84.304688 221.578125 88.023438 215.292969 94.4375 210.621094 C 101.929688 205.171875 110.40625 203.90625 116.449219 210.863281 C 116.800781 211.253906 117.136719 211.683594 117.472656 212.148438 C 121.003906 217.003906 122.230469 224.367188 121.394531 230.601562 Z M 121.394531 230.601562 " fill-opacity="1" fill-rule="nonzero"/><path fill="#311b92" d="M 146.566406 228.238281 C 146.101562 229.820312 145.304688 231.417969 144.132812 233.019531 C 139.058594 240.011719 127.585938 244.085938 120.242188 242.523438 C 118.792969 242.226562 117.488281 241.707031 116.449219 240.945312 C 110.070312 245.574219 94.84375 241.390625 88.765625 233.019531 C 87.59375 231.417969 86.792969 229.820312 86.328125 228.238281 C 86.941406 227.976562 87.574219 227.734375 88.246094 227.53125 C 90.496094 226.804688 93.003906 226.414062 95.679688 226.414062 C 100.867188 226.414062 106.761719 227.921875 111.503906 230.601562 C 113.363281 231.640625 115.054688 232.871094 116.449219 234.265625 C 117.84375 232.871094 119.535156 231.640625 121.394531 230.601562 C 126.136719 227.921875 132.027344 226.414062 137.214844 226.414062 C 139.894531 226.414062 142.402344 226.804688 144.652344 227.53125 C 145.324219 227.734375 145.953125 227.976562 146.566406 228.238281 Z M 146.566406 228.238281 " fill-opacity="1" fill-rule="nonzero"/><path fill="#5e35b1" d="M 143.5 231.066406 C 133.660156 227.867188 118.886719 233.4375 116.449219 240.945312 C 114.011719 248.449219 122.691406 261.640625 132.53125 264.839844 C 142.371094 268.039062 149.050781 261.855469 152.078125 252.527344 C 155.105469 243.199219 153.335938 234.265625 143.5 231.066406 Z M 143.5 231.066406 " fill-opacity="1" fill-rule="nonzero"/><path fill="#5e35b1" d="M 100.367188 264.839844 C 110.207031 261.640625 118.886719 248.449219 116.449219 240.941406 C 114.011719 233.4375 99.238281 227.867188 89.398438 231.066406 C 79.558594 234.261719 77.789062 243.199219 80.820312 252.523438 C 83.847656 261.851562 90.527344 268.039062 100.367188 264.839844 Z M 100.367188 264.839844 " fill-opacity="1" fill-rule="nonzero"/><path fill="#4527a0" d="M 132.019531 234.3125 C 126.355469 232.46875 117.851562 235.675781 116.449219 239.996094 C 115.046875 244.316406 120.042969 251.910156 125.707031 253.753906 C 131.367188 255.59375 135.214844 252.03125 136.960938 246.664062 C 138.703125 241.296875 137.683594 236.152344 132.019531 234.3125 Z M 132.019531 234.3125 " fill-opacity="1" fill-rule="nonzero"/><path fill="#4527a0" d="M 107.191406 253.753906 C 112.855469 251.914062 117.851562 244.316406 116.449219 240 C 115.046875 235.679688 106.542969 232.472656 100.878906 234.3125 C 95.214844 236.15625 94.195312 241.296875 95.9375 246.667969 C 97.683594 252.035156 101.527344 255.59375 107.191406 253.753906 Z M 107.191406 253.753906 " fill-opacity="1" fill-rule="nonzero"/><g clip-path="url(#876999897d)"><path fill="#7e57c2" d="M 134.195312 263.628906 C 134.195312 253.28125 124.335938 240.945312 116.449219 240.945312 C 108.5625 240.945312 98.703125 253.28125 98.703125 263.628906 C 98.703125 273.980469 106.648438 278.425781 116.449219 278.425781 C 126.25 278.425781 134.195312 273.980469 134.195312 263.628906 Z M 134.195312 263.628906 " fill-opacity="1" fill-rule="nonzero"/></g><path fill="#5e35b1" d="M 127.605469 252.371094 C 127.605469 247.15625 121.40625 240.941406 116.449219 240.941406 C 111.492188 240.941406 105.292969 247.15625 105.292969 252.371094 C 105.292969 257.585938 110.289062 259.824219 116.449219 259.824219 C 122.609375 259.824219 127.605469 257.585938 127.605469 252.371094 Z M 127.605469 252.371094 " fill-opacity="1" fill-rule="nonzero"/><path fill="#ffb74d" d="M 122.027344 241.222656 C 122.027344 241.589844 121.992188 241.953125 121.917969 242.3125 C 121.847656 242.671875 121.742188 243.019531 121.601562 243.359375 C 121.460938 243.695312 121.289062 244.019531 121.085938 244.324219 C 120.882812 244.628906 120.652344 244.910156 120.394531 245.167969 C 120.132812 245.425781 119.851562 245.660156 119.546875 245.863281 C 119.242188 246.066406 118.921875 246.238281 118.582031 246.378906 C 118.246094 246.519531 117.894531 246.625 117.535156 246.695312 C 117.179688 246.765625 116.816406 246.804688 116.449219 246.804688 C 116.082031 246.804688 115.71875 246.765625 115.359375 246.695312 C 115 246.625 114.652344 246.519531 114.3125 246.378906 C 113.976562 246.238281 113.65625 246.066406 113.351562 245.863281 C 113.046875 245.660156 112.765625 245.425781 112.503906 245.167969 C 112.246094 244.910156 112.015625 244.628906 111.8125 244.324219 C 111.609375 244.019531 111.4375 243.695312 111.296875 243.359375 C 111.15625 243.019531 111.050781 242.671875 110.976562 242.3125 C 110.90625 241.953125 110.871094 241.589844 110.871094 241.222656 C 110.871094 240.855469 110.90625 240.492188 110.976562 240.132812 C 111.050781 239.773438 111.15625 239.425781 111.296875 239.085938 C 111.4375 238.75 111.609375 238.425781 111.8125 238.121094 C 112.015625 237.816406 112.246094 237.535156 112.503906 237.277344 C 112.765625 237.015625 113.046875 236.785156 113.351562 236.582031 C 113.65625 236.378906 113.976562 236.207031 114.3125 236.066406 C 114.652344 235.925781 115 235.820312 115.359375 235.75 C 115.71875 235.675781 116.082031 235.640625 116.449219 235.640625 C 116.816406 235.640625 117.179688 235.675781 117.535156 235.75 C 117.894531 235.820312 118.246094 235.925781 118.582031 236.066406 C 118.921875 236.207031 119.242188 236.378906 119.546875 236.582031 C 119.851562 236.785156 120.132812 237.015625 120.394531 237.277344 C 120.652344 237.535156 120.882812 237.816406 121.085938 238.121094 C 121.289062 238.425781 121.460938 238.75 121.601562 239.085938 C 121.742188 239.425781 121.847656 239.773438 121.917969 240.132812 C 121.992188 240.492188 122.027344 240.855469 122.027344 241.222656 Z M 122.027344 241.222656 " fill-opacity="1" fill-rule="nonzero"/><path fill="#326fca" d="M 80.585938 175.917969 C 80.121094 177.5 79.320312 179.097656 78.148438 180.699219 C 73.070312 187.695312 61.59375 191.765625 54.246094 190.203125 C 52.792969 189.90625 51.492188 189.386719 50.449219 188.625 C 47.789062 186.6875 46.097656 182.78125 45.503906 178.28125 C 44.664062 172.050781 45.894531 164.683594 49.425781 159.828125 C 49.761719 159.382812 50.097656 158.953125 50.449219 158.542969 C 51.304688 157.539062 52.234375 156.703125 53.183594 156.03125 C 58.894531 152.035156 66.058594 153.632812 72.476562 158.300781 C 78.894531 162.972656 82.613281 169.257812 80.585938 175.917969 Z M 80.585938 175.917969 " fill-opacity="1" fill-rule="nonzero"/><path fill="#004bbd" d="M 59.359375 175.769531 C 59.117188 181.90625 57.296875 187.042969 54.246094 190.203125 C 52.792969 189.90625 51.492188 189.386719 50.449219 188.625 C 44.070312 183.992188 43.34375 168.199219 49.425781 159.828125 C 50.582031 158.246094 51.84375 156.980469 53.183594 156.03125 C 53.648438 156.535156 54.078125 157.074219 54.488281 157.652344 C 57.855469 162.28125 59.621094 168.886719 59.359375 175.769531 Z M 59.359375 175.769531 " fill-opacity="1" fill-rule="nonzero"/><path fill="#326fca" d="M 55.398438 178.28125 C 54.804688 182.78125 53.109375 186.6875 50.449219 188.625 C 44.070312 193.253906 28.835938 189.070312 22.753906 180.699219 C 21.582031 179.097656 20.78125 177.5 20.316406 175.917969 C 18.289062 169.257812 22.007812 162.972656 28.425781 158.300781 C 35.921875 152.851562 44.40625 151.585938 50.449219 158.542969 C 50.804688 158.933594 51.140625 159.363281 51.472656 159.828125 C 55.007812 164.683594 56.234375 172.050781 55.398438 178.28125 Z M 55.398438 178.28125 " fill-opacity="1" fill-rule="nonzero"/><path fill="#004bbd" d="M 80.585938 175.917969 C 80.121094 177.5 79.320312 179.097656 78.148438 180.699219 C 73.070312 187.695312 61.59375 191.765625 54.246094 190.203125 C 52.792969 189.90625 51.492188 189.386719 50.449219 188.625 C 44.070312 193.253906 28.835938 189.070312 22.753906 180.699219 C 21.582031 179.097656 20.78125 177.5 20.316406 175.917969 C 20.929688 175.65625 21.5625 175.417969 22.230469 175.210938 C 24.480469 174.484375 26.992188 174.09375 29.671875 174.09375 C 34.863281 174.09375 40.757812 175.601562 45.503906 178.28125 C 47.363281 179.324219 49.054688 180.550781 50.449219 181.945312 C 51.84375 180.550781 53.539062 179.324219 55.398438 178.28125 C 60.140625 175.601562 66.039062 174.09375 71.230469 174.09375 C 73.90625 174.09375 76.417969 174.484375 78.667969 175.210938 C 79.339844 175.417969 79.972656 175.65625 80.585938 175.917969 Z M 80.585938 175.917969 " fill-opacity="1" fill-rule="nonzero"/><path fill="#8ab4f2" d="M 77.515625 178.746094 C 67.671875 175.546875 52.890625 181.117188 50.449219 188.625 C 48.011719 196.128906 56.695312 209.320312 66.542969 212.523438 C 76.386719 215.71875 83.070312 209.535156 86.097656 200.207031 C 89.128906 190.878906 87.359375 181.945312 77.515625 178.746094 Z M 77.515625 178.746094 " fill-opacity="1" fill-rule="nonzero"/><path fill="#8ab4f2" d="M 34.359375 212.519531 C 44.203125 209.320312 52.890625 196.128906 50.449219 188.621094 C 48.011719 181.117188 33.230469 175.546875 23.386719 178.746094 C 13.542969 181.945312 11.769531 190.878906 14.800781 200.207031 C 17.832031 209.53125 24.515625 215.71875 34.359375 212.519531 Z M 34.359375 212.519531 " fill-opacity="1" fill-rule="nonzero"/><path fill="#326fca" d="M 66.03125 181.992188 C 60.363281 180.148438 51.855469 183.355469 50.449219 187.675781 C 49.046875 191.996094 54.046875 199.589844 59.710938 201.433594 C 65.378906 203.273438 69.226562 199.710938 70.972656 194.34375 C 72.71875 188.976562 71.695312 183.832031 66.03125 181.992188 Z M 66.03125 181.992188 " fill-opacity="1" fill-rule="nonzero"/><path fill="#326fca" d="M 41.1875 201.433594 C 46.855469 199.59375 51.855469 191.996094 50.449219 187.679688 C 49.046875 183.359375 40.539062 180.152344 34.871094 181.992188 C 29.203125 183.835938 28.183594 188.980469 29.929688 194.347656 C 31.671875 199.714844 35.519531 203.273438 41.1875 201.433594 Z M 41.1875 201.433594 " fill-opacity="1" fill-rule="nonzero"/><g clip-path="url(#b25797f1a6)"><path fill="#bdd7ff" d="M 68.207031 211.3125 C 68.207031 200.960938 58.339844 188.625 50.449219 188.625 C 42.558594 188.625 32.695312 200.960938 32.695312 211.3125 C 32.695312 221.660156 40.644531 226.105469 50.449219 226.105469 C 60.257812 226.105469 68.207031 221.660156 68.207031 211.3125 Z M 68.207031 211.3125 " fill-opacity="1" fill-rule="nonzero"/></g><path fill="#8ab4f2" d="M 61.613281 200.050781 C 61.613281 194.835938 55.410156 188.621094 50.449219 188.621094 C 45.488281 188.621094 39.289062 194.835938 39.289062 200.050781 C 39.289062 205.265625 44.285156 207.503906 50.449219 207.503906 C 56.613281 207.503906 61.613281 205.265625 61.613281 200.050781 Z M 61.613281 200.050781 " fill-opacity="1" fill-rule="nonzero"/><path fill="#ffb74d" d="M 56.03125 188.902344 C 56.03125 189.269531 55.996094 189.632812 55.925781 189.992188 C 55.851562 190.351562 55.746094 190.699219 55.605469 191.039062 C 55.464844 191.375 55.292969 191.699219 55.089844 192.003906 C 54.886719 192.308594 54.65625 192.589844 54.398438 192.847656 C 54.136719 193.109375 53.855469 193.339844 53.550781 193.542969 C 53.246094 193.746094 52.925781 193.917969 52.585938 194.058594 C 52.246094 194.199219 51.898438 194.304688 51.539062 194.375 C 51.179688 194.449219 50.816406 194.484375 50.449219 194.484375 C 50.085938 194.484375 49.722656 194.449219 49.363281 194.375 C 49.003906 194.304688 48.652344 194.199219 48.316406 194.058594 C 47.976562 193.917969 47.65625 193.746094 47.351562 193.542969 C 47.046875 193.339844 46.761719 193.109375 46.503906 192.847656 C 46.246094 192.589844 46.015625 192.308594 45.808594 192.003906 C 45.605469 191.699219 45.433594 191.375 45.292969 191.039062 C 45.15625 190.699219 45.046875 190.351562 44.976562 189.992188 C 44.90625 189.632812 44.871094 189.269531 44.871094 188.902344 C 44.871094 188.535156 44.90625 188.171875 44.976562 187.8125 C 45.046875 187.453125 45.15625 187.105469 45.292969 186.765625 C 45.433594 186.429688 45.605469 186.105469 45.808594 185.800781 C 46.015625 185.496094 46.246094 185.214844 46.503906 184.957031 C 46.761719 184.699219 47.046875 184.464844 47.351562 184.261719 C 47.65625 184.058594 47.976562 183.886719 48.316406 183.746094 C 48.652344 183.605469 49.003906 183.5 49.363281 183.429688 C 49.722656 183.359375 50.085938 183.320312 50.449219 183.320312 C 50.816406 183.320312 51.179688 183.359375 51.539062 183.429688 C 51.898438 183.5 52.246094 183.605469 52.585938 183.746094 C 52.925781 183.886719 53.246094 184.058594 53.550781 184.261719 C 53.855469 184.464844 54.136719 184.699219 54.398438 184.957031 C 54.65625 185.214844 54.886719 185.496094 55.089844 185.800781 C 55.292969 186.105469 55.464844 186.429688 55.605469 186.765625 C 55.746094 187.105469 55.851562 187.453125 55.925781 187.8125 C 55.996094 188.171875 56.03125 188.535156 56.03125 188.902344 Z M 56.03125 188.902344 " fill-opacity="1" fill-rule="nonzero"/><path fill="#ec7f51" d="M 168.3125 39.207031 C 167.847656 40.789062 167.046875 42.390625 165.875 43.988281 C 160.796875 50.984375 149.320312 55.058594 141.972656 53.496094 C 140.519531 53.199219 139.21875 52.675781 138.175781 51.914062 C 135.515625 49.980469 133.824219 46.074219 133.230469 41.570312 C 132.390625 35.339844 133.621094 27.972656 137.152344 23.117188 C 137.488281 22.671875 137.824219 22.242188 138.175781 21.835938 C 139.03125 20.828125 139.964844 19.992188 140.910156 19.324219 C 146.621094 15.324219 153.785156 16.921875 160.203125 21.59375 C 166.621094 26.261719 170.339844 32.550781 168.3125 39.207031 Z M 168.3125 39.207031 " fill-opacity="1" fill-rule="nonzero"/><path fill="#e35619" d="M 147.085938 39.058594 C 146.847656 45.199219 145.023438 50.332031 141.972656 53.496094 C 140.519531 53.199219 139.21875 52.675781 138.175781 51.914062 C 131.796875 47.28125 131.070312 31.488281 137.152344 23.117188 C 138.308594 21.535156 139.574219 20.273438 140.910156 19.324219 C 141.375 19.824219 141.804688 20.363281 142.214844 20.941406 C 145.582031 25.574219 147.347656 32.175781 147.085938 39.058594 Z M 147.085938 39.058594 " fill-opacity="1" fill-rule="nonzero"/><path fill="#ec7f51" d="M 143.125 41.570312 C 142.53125 46.074219 140.835938 49.980469 138.175781 51.914062 C 131.796875 56.546875 116.5625 52.359375 110.480469 43.988281 C 109.308594 42.390625 108.507812 40.789062 108.042969 39.207031 C 106.015625 32.550781 109.734375 26.261719 116.152344 21.59375 C 123.648438 16.140625 132.132812 14.878906 138.175781 21.835938 C 138.53125 22.226562 138.867188 22.652344 139.199219 23.117188 C 142.734375 27.972656 143.960938 35.339844 143.125 41.570312 Z M 143.125 41.570312 " fill-opacity="1" fill-rule="nonzero"/><path fill="#e35619" d="M 168.3125 39.207031 C 167.847656 40.789062 167.046875 42.390625 165.875 43.988281 C 160.796875 50.984375 149.320312 55.058594 141.972656 53.496094 C 140.519531 53.199219 139.21875 52.675781 138.175781 51.914062 C 131.796875 56.546875 116.5625 52.359375 110.480469 43.988281 C 109.308594 42.390625 108.507812 40.789062 108.042969 39.207031 C 108.65625 38.949219 109.289062 38.707031 109.957031 38.5 C 112.207031 37.777344 114.71875 37.386719 117.398438 37.386719 C 122.589844 37.386719 128.484375 38.890625 133.230469 41.570312 C 135.089844 42.613281 136.78125 43.839844 138.175781 45.234375 C 139.574219 43.839844 141.265625 42.613281 143.125 41.570312 C 147.867188 38.890625 153.765625 37.386719 158.957031 37.386719 C 161.632812 37.386719 164.144531 37.777344 166.398438 38.5 C 167.066406 38.707031 167.699219 38.949219 168.3125 39.207031 Z M 168.3125 39.207031 " fill-opacity="1" fill-rule="nonzero"/><path fill="#ffa47d" d="M 165.242188 42.039062 C 155.398438 38.839844 140.617188 44.40625 138.175781 51.914062 C 135.738281 59.417969 144.421875 72.613281 154.269531 75.8125 C 164.113281 79.007812 170.796875 72.824219 173.828125 63.496094 C 176.855469 54.171875 175.085938 45.234375 165.242188 42.039062 Z M 165.242188 42.039062 " fill-opacity="1" fill-rule="nonzero"/><path fill="#ffa47d" d="M 122.085938 75.808594 C 131.929688 72.613281 140.617188 59.417969 138.175781 51.910156 C 135.738281 44.40625 120.957031 38.839844 111.113281 42.035156 C 101.269531 45.234375 99.496094 54.167969 102.527344 63.496094 C 105.558594 72.824219 112.242188 79.007812 122.085938 75.808594 Z M 122.085938 75.808594 " fill-opacity="1" fill-rule="nonzero"/><path fill="#ec7f51" d="M 153.757812 45.28125 C 148.089844 43.441406 139.582031 46.648438 138.175781 50.96875 C 136.773438 55.285156 141.773438 62.882812 147.4375 64.722656 C 153.105469 66.566406 156.953125 63.003906 158.699219 57.632812 C 160.445312 52.265625 159.421875 47.125 153.757812 45.28125 Z M 153.757812 45.28125 " fill-opacity="1" fill-rule="nonzero"/><path fill="#ec7f51" d="M 128.914062 64.726562 C 134.582031 62.882812 139.582031 55.289062 138.175781 50.96875 C 136.773438 46.648438 128.265625 43.441406 122.597656 45.285156 C 116.933594 47.125 115.910156 52.269531 117.65625 57.636719 C 119.398438 63.007812 123.246094 66.566406 128.914062 64.726562 Z M 128.914062 64.726562 " fill-opacity="1" fill-rule="nonzero"/><g clip-path="url(#b118b1bff6)"><path fill="#ffd1bd" d="M 155.933594 74.601562 C 155.933594 64.25 146.066406 51.914062 138.175781 51.914062 C 130.285156 51.914062 120.421875 64.25 120.421875 74.601562 C 120.421875 84.949219 128.371094 89.398438 138.175781 89.398438 C 147.984375 89.398438 155.933594 84.949219 155.933594 74.601562 Z M 155.933594 74.601562 " fill-opacity="1" fill-rule="nonzero"/></g><path fill="#ffa47d" d="M 149.339844 63.339844 C 149.339844 58.128906 143.136719 51.910156 138.175781 51.910156 C 133.214844 51.910156 127.015625 58.128906 127.015625 63.339844 C 127.015625 68.554688 132.011719 70.796875 138.175781 70.796875 C 144.34375 70.796875 149.339844 68.554688 149.339844 63.339844 Z M 149.339844 63.339844 " fill-opacity="1" fill-rule="nonzero"/><path fill="#ffb74d" d="M 143.757812 52.191406 C 143.757812 52.558594 143.722656 52.921875 143.652344 53.28125 C 143.578125 53.640625 143.472656 53.988281 143.332031 54.328125 C 143.191406 54.667969 143.019531 54.988281 142.816406 55.292969 C 142.613281 55.597656 142.382812 55.878906 142.125 56.140625 C 141.863281 56.398438 141.582031 56.628906 141.277344 56.832031 C 140.972656 57.035156 140.652344 57.207031 140.3125 57.347656 C 139.972656 57.488281 139.625 57.59375 139.265625 57.667969 C 138.90625 57.738281 138.542969 57.773438 138.175781 57.773438 C 137.8125 57.773438 137.449219 57.738281 137.089844 57.667969 C 136.730469 57.59375 136.378906 57.488281 136.042969 57.347656 C 135.703125 57.207031 135.382812 57.035156 135.078125 56.832031 C 134.773438 56.628906 134.488281 56.398438 134.230469 56.140625 C 133.972656 55.878906 133.742188 55.597656 133.535156 55.292969 C 133.332031 54.988281 133.160156 54.667969 133.019531 54.328125 C 132.882812 53.988281 132.773438 53.640625 132.703125 53.28125 C 132.632812 52.921875 132.597656 52.558594 132.597656 52.191406 C 132.597656 51.828125 132.632812 51.464844 132.703125 51.105469 C 132.773438 50.746094 132.882812 50.394531 133.019531 50.058594 C 133.160156 49.71875 133.332031 49.398438 133.535156 49.09375 C 133.742188 48.789062 133.972656 48.507812 134.230469 48.246094 C 134.488281 47.988281 134.773438 47.757812 135.078125 47.554688 C 135.382812 47.347656 135.703125 47.175781 136.042969 47.035156 C 136.378906 46.898438 136.730469 46.789062 137.089844 46.71875 C 137.449219 46.648438 137.8125 46.613281 138.175781 46.613281 C 138.542969 46.613281 138.90625 46.648438 139.265625 46.71875 C 139.625 46.789062 139.972656 46.898438 140.3125 47.035156 C 140.652344 47.175781 140.972656 47.347656 141.277344 47.554688 C 141.582031 47.757812 141.863281 47.988281 142.125 48.246094 C 142.382812 48.507812 142.613281 48.789062 142.816406 49.09375 C 143.019531 49.398438 143.191406 49.71875 143.332031 50.058594 C 143.472656 50.394531 143.578125 50.746094 143.652344 51.105469 C 143.722656 51.464844 143.757812 51.828125 143.757812 52.191406 Z M 143.757812 52.191406 " fill-opacity="1" fill-rule="nonzero"/><path fill="#b14c4c" d="M 254.40625 51.78125 C 253.941406 53.359375 253.140625 54.960938 251.96875 56.558594 C 246.890625 63.554688 235.410156 67.628906 228.0625 66.066406 C 226.613281 65.769531 225.3125 65.246094 224.269531 64.484375 C 221.609375 62.550781 219.917969 58.644531 219.320312 54.140625 C 218.484375 47.910156 219.710938 40.542969 223.246094 35.6875 C 223.582031 35.242188 223.914062 34.816406 224.269531 34.40625 C 225.125 33.402344 226.054688 32.5625 227.003906 31.894531 C 232.714844 27.894531 239.875 29.496094 246.292969 34.164062 C 252.710938 38.832031 256.433594 45.121094 254.40625 51.78125 Z M 254.40625 51.78125 " fill-opacity="1" fill-rule="nonzero"/><path fill="#972626" d="M 233.179688 51.628906 C 232.9375 57.769531 231.113281 62.902344 228.0625 66.066406 C 226.613281 65.769531 225.3125 65.246094 224.269531 64.484375 C 217.890625 59.851562 217.164062 44.058594 223.246094 35.6875 C 224.398438 34.109375 225.664062 32.84375 227.003906 31.894531 C 227.46875 32.394531 227.898438 32.9375 228.304688 33.511719 C 231.671875 38.144531 233.441406 44.746094 233.179688 51.628906 Z M 233.179688 51.628906 " fill-opacity="1" fill-rule="nonzero"/><path fill="#b14c4c" d="M 229.21875 54.140625 C 228.621094 58.644531 226.929688 62.550781 224.269531 64.484375 C 217.890625 69.117188 202.652344 64.929688 196.570312 56.558594 C 195.398438 54.960938 194.597656 53.359375 194.132812 51.78125 C 192.105469 45.121094 195.828125 38.832031 202.246094 34.164062 C 209.742188 28.714844 218.222656 27.449219 224.269531 34.40625 C 224.621094 34.796875 224.957031 35.222656 225.292969 35.6875 C 228.828125 40.542969 230.054688 47.910156 229.21875 54.140625 Z M 229.21875 54.140625 " fill-opacity="1" fill-rule="nonzero"/><path fill="#972626" d="M 254.40625 51.78125 C 253.941406 53.359375 253.140625 54.960938 251.96875 56.558594 C 246.890625 63.554688 235.410156 67.628906 228.0625 66.066406 C 226.613281 65.769531 225.3125 65.246094 224.269531 64.484375 C 217.890625 69.117188 202.652344 64.929688 196.570312 56.558594 C 195.398438 54.960938 194.597656 53.359375 194.132812 51.78125 C 194.746094 51.519531 195.378906 51.277344 196.050781 51.074219 C 198.300781 50.347656 200.8125 49.957031 203.492188 49.957031 C 208.679688 49.957031 214.578125 51.464844 219.320312 54.140625 C 221.179688 55.183594 222.875 56.410156 224.269531 57.808594 C 225.664062 56.410156 227.355469 55.183594 229.21875 54.140625 C 233.960938 51.464844 239.859375 49.957031 245.046875 49.957031 C 247.726562 49.957031 250.238281 50.347656 252.488281 51.074219 C 253.160156 51.277344 253.789062 51.519531 254.40625 51.78125 Z M 254.40625 51.78125 " fill-opacity="1" fill-rule="nonzero"/><path fill="#d86464" d="M 251.332031 54.609375 C 241.488281 51.410156 226.707031 56.980469 224.269531 64.484375 C 221.832031 71.992188 230.515625 85.183594 240.359375 88.382812 C 250.203125 91.582031 256.886719 85.394531 259.917969 76.066406 C 262.949219 66.742188 261.179688 57.808594 251.332031 54.609375 Z M 251.332031 54.609375 " fill-opacity="1" fill-rule="nonzero"/><path fill="#d86464" d="M 208.179688 88.382812 C 218.023438 85.183594 226.707031 71.988281 224.269531 64.484375 C 221.832031 56.976562 207.050781 51.410156 197.207031 54.605469 C 187.359375 57.804688 185.589844 66.738281 188.621094 76.066406 C 191.652344 85.394531 198.335938 91.582031 208.179688 88.382812 Z M 208.179688 88.382812 " fill-opacity="1" fill-rule="nonzero"/><path fill="#b14c4c" d="M 239.847656 57.851562 C 234.183594 56.011719 225.675781 59.21875 224.269531 63.539062 C 222.863281 67.855469 227.863281 75.453125 233.53125 77.292969 C 239.199219 79.136719 243.046875 75.574219 244.792969 70.203125 C 246.535156 64.835938 245.515625 59.695312 239.847656 57.851562 Z M 239.847656 57.851562 " fill-opacity="1" fill-rule="nonzero"/><path fill="#b14c4c" d="M 215.007812 77.296875 C 220.671875 75.453125 225.675781 67.859375 224.269531 63.539062 C 222.863281 59.21875 214.355469 56.011719 208.691406 57.855469 C 203.023438 59.695312 202.003906 64.839844 203.746094 70.207031 C 205.492188 75.578125 209.339844 79.136719 215.007812 77.296875 Z M 215.007812 77.296875 " fill-opacity="1" fill-rule="nonzero"/><path fill="#f28a8a" d="M 242.023438 87.171875 C 242.023438 76.820312 232.160156 64.484375 224.269531 64.484375 C 216.378906 64.484375 206.515625 76.820312 206.515625 87.171875 C 206.515625 97.523438 214.460938 101.96875 224.269531 101.96875 C 234.078125 101.96875 242.023438 97.523438 242.023438 87.171875 Z M 242.023438 87.171875 " fill-opacity="1" fill-rule="nonzero"/><path fill="#d86464" d="M 235.429688 75.910156 C 235.429688 70.699219 229.230469 64.484375 224.269531 64.484375 C 219.308594 64.484375 213.109375 70.699219 213.109375 75.910156 C 213.109375 81.125 218.105469 83.367188 224.269531 83.367188 C 230.433594 83.367188 235.429688 81.125 235.429688 75.910156 Z M 235.429688 75.910156 " fill-opacity="1" fill-rule="nonzero"/><path fill="#ffb74d" d="M 229.851562 64.765625 C 229.851562 65.128906 229.8125 65.492188 229.742188 65.851562 C 229.671875 66.210938 229.566406 66.5625 229.425781 66.898438 C 229.285156 67.238281 229.113281 67.558594 228.910156 67.863281 C 228.707031 68.167969 228.476562 68.449219 228.214844 68.710938 C 227.957031 68.96875 227.675781 69.199219 227.371094 69.402344 C 227.066406 69.609375 226.742188 69.78125 226.40625 69.917969 C 226.066406 70.058594 225.71875 70.164062 225.359375 70.238281 C 225 70.308594 224.636719 70.34375 224.269531 70.34375 C 223.902344 70.34375 223.539062 70.308594 223.179688 70.238281 C 222.820312 70.164062 222.472656 70.058594 222.132812 69.917969 C 221.796875 69.78125 221.472656 69.609375 221.167969 69.402344 C 220.863281 69.199219 220.582031 68.96875 220.324219 68.710938 C 220.0625 68.449219 219.832031 68.167969 219.628906 67.863281 C 219.425781 67.558594 219.253906 67.238281 219.113281 66.898438 C 218.972656 66.5625 218.867188 66.210938 218.796875 65.851562 C 218.722656 65.492188 218.6875 65.128906 218.6875 64.765625 C 218.6875 64.398438 218.722656 64.035156 218.796875 63.675781 C 218.867188 63.316406 218.972656 62.964844 219.113281 62.628906 C 219.253906 62.289062 219.425781 61.96875 219.628906 61.664062 C 219.832031 61.359375 220.0625 61.078125 220.324219 60.816406 C 220.582031 60.558594 220.863281 60.328125 221.167969 60.125 C 221.472656 59.921875 221.796875 59.75 222.132812 59.609375 C 222.472656 59.46875 222.820312 59.363281 223.179688 59.289062 C 223.539062 59.21875 223.902344 59.183594 224.269531 59.183594 C 224.636719 59.183594 225 59.21875 225.359375 59.289062 C 225.71875 59.363281 226.066406 59.46875 226.40625 59.609375 C 226.742188 59.75 227.066406 59.921875 227.371094 60.125 C 227.675781 60.328125 227.957031 60.558594 228.214844 60.816406 C 228.476562 61.078125 228.707031 61.359375 228.910156 61.664062 C 229.113281 61.96875 229.285156 62.289062 229.425781 62.628906 C 229.566406 62.964844 229.671875 63.316406 229.742188 63.675781 C 229.8125 64.035156 229.851562 64.398438 229.851562 64.765625 Z M 229.851562 64.765625 " fill-opacity="1" fill-rule="nonzero"/><path fill="#4b714f" d="M 101.664062 94.898438 C 101.199219 96.480469 100.398438 98.078125 99.226562 99.679688 C 94.148438 106.671875 82.671875 110.746094 75.324219 109.183594 C 73.871094 108.886719 72.570312 108.367188 71.527344 107.601562 C 68.867188 105.667969 67.175781 101.761719 66.582031 97.261719 C 65.742188 91.027344 66.972656 83.660156 70.507812 78.808594 C 70.839844 78.359375 71.175781 77.933594 71.527344 77.523438 C 72.386719 76.519531 73.316406 75.683594 74.265625 75.011719 C 79.972656 71.011719 87.136719 72.613281 93.554688 77.28125 C 99.972656 81.949219 103.691406 88.238281 101.664062 94.898438 Z M 101.664062 94.898438 " fill-opacity="1" fill-rule="nonzero"/><path fill="#25572a" d="M 80.441406 94.75 C 80.199219 100.886719 78.375 106.023438 75.324219 109.183594 C 73.871094 108.886719 72.570312 108.367188 71.527344 107.601562 C 65.148438 102.972656 64.421875 87.179688 70.507812 78.808594 C 71.660156 77.226562 72.925781 75.960938 74.265625 75.011719 C 74.730469 75.515625 75.15625 76.054688 75.566406 76.628906 C 78.933594 81.261719 80.699219 87.867188 80.441406 94.75 Z M 80.441406 94.75 " fill-opacity="1" fill-rule="nonzero"/><path fill="#4b714f" d="M 76.476562 97.261719 C 75.882812 101.761719 74.1875 105.667969 71.527344 107.601562 C 65.148438 112.234375 49.914062 108.050781 43.832031 99.679688 C 42.660156 98.078125 41.859375 96.480469 41.394531 94.898438 C 39.367188 88.238281 43.085938 81.949219 49.503906 77.28125 C 57 71.832031 65.484375 70.566406 71.527344 77.523438 C 71.882812 77.914062 72.21875 78.34375 72.550781 78.808594 C 76.085938 83.660156 77.3125 91.027344 76.476562 97.261719 Z M 76.476562 97.261719 " fill-opacity="1" fill-rule="nonzero"/><path fill="#25572a" d="M 101.664062 94.898438 C 101.199219 96.480469 100.398438 98.078125 99.226562 99.679688 C 94.148438 106.671875 82.671875 110.746094 75.324219 109.183594 C 73.871094 108.886719 72.570312 108.367188 71.527344 107.601562 C 65.148438 112.234375 49.914062 108.050781 43.832031 99.679688 C 42.660156 98.078125 41.859375 96.480469 41.394531 94.898438 C 42.007812 94.636719 42.640625 94.394531 43.308594 94.191406 C 45.5625 93.464844 48.070312 93.074219 50.75 93.074219 C 55.941406 93.074219 61.835938 94.582031 66.582031 97.261719 C 68.441406 98.300781 70.132812 99.53125 71.527344 100.925781 C 72.925781 99.53125 74.617188 98.300781 76.476562 97.261719 C 81.222656 94.582031 87.117188 93.074219 92.308594 93.074219 C 94.988281 93.074219 97.496094 93.464844 99.75 94.191406 C 100.417969 94.394531 101.050781 94.636719 101.664062 94.898438 Z M 101.664062 94.898438 " fill-opacity="1" fill-rule="nonzero"/><path fill="#9ec577" d="M 98.59375 97.726562 C 88.75 94.527344 73.96875 100.097656 71.527344 107.601562 C 69.089844 115.109375 77.777344 128.300781 87.621094 131.5 C 97.464844 134.699219 104.148438 128.511719 107.179688 119.1875 C 110.207031 109.859375 108.4375 100.925781 98.59375 97.726562 Z M 98.59375 97.726562 " fill-opacity="1" fill-rule="nonzero"/><path fill="#9ec577" d="M 55.4375 131.5 C 65.28125 128.300781 73.96875 115.105469 71.527344 107.601562 C 69.089844 100.09375 54.308594 94.527344 44.464844 97.726562 C 34.621094 100.921875 32.851562 109.859375 35.878906 119.183594 C 38.910156 128.511719 45.59375 134.699219 55.4375 131.5 Z M 55.4375 131.5 " fill-opacity="1" fill-rule="nonzero"/><path fill="#4b714f" d="M 87.109375 100.972656 C 81.441406 99.128906 72.933594 102.335938 71.527344 106.65625 C 70.125 110.976562 75.125 118.570312 80.792969 120.414062 C 86.457031 122.253906 90.304688 118.691406 92.050781 113.324219 C 93.796875 107.953125 92.773438 102.8125 87.109375 100.972656 Z M 87.109375 100.972656 " fill-opacity="1" fill-rule="nonzero"/><path fill="#4b714f" d="M 62.265625 120.414062 C 67.933594 118.574219 72.933594 110.976562 71.527344 106.65625 C 70.125 102.339844 61.617188 99.132812 55.949219 100.972656 C 50.285156 102.816406 49.261719 107.957031 51.007812 113.328125 C 52.753906 118.695312 56.597656 122.253906 62.265625 120.414062 Z M 62.265625 120.414062 " fill-opacity="1" fill-rule="nonzero"/><g clip-path="url(#7544457e6c)"><path fill="#ced8a4" d="M 89.285156 130.289062 C 89.285156 119.941406 79.421875 107.601562 71.527344 107.601562 C 63.636719 107.601562 53.773438 119.941406 53.773438 130.289062 C 53.773438 140.640625 61.722656 145.085938 71.527344 145.085938 C 81.335938 145.085938 89.285156 140.640625 89.285156 130.289062 Z M 89.285156 130.289062 " fill-opacity="1" fill-rule="nonzero"/></g><path fill="#9ec577" d="M 82.691406 119.03125 C 82.691406 113.816406 76.492188 107.601562 71.527344 107.601562 C 66.566406 107.601562 60.367188 113.816406 60.367188 119.03125 C 60.367188 124.246094 65.363281 126.484375 71.527344 126.484375 C 77.695312 126.484375 82.691406 124.246094 82.691406 119.03125 Z M 82.691406 119.03125 " fill-opacity="1" fill-rule="nonzero"/><path fill="#ffb74d" d="M 77.109375 107.882812 C 77.109375 108.25 77.074219 108.609375 77.003906 108.96875 C 76.929688 109.328125 76.824219 109.679688 76.683594 110.015625 C 76.542969 110.355469 76.371094 110.675781 76.167969 110.980469 C 75.964844 111.285156 75.734375 111.570312 75.476562 111.828125 C 75.214844 112.085938 74.933594 112.320312 74.628906 112.523438 C 74.324219 112.726562 74.003906 112.898438 73.664062 113.039062 C 73.328125 113.179688 72.976562 113.285156 72.617188 113.355469 C 72.257812 113.425781 71.894531 113.460938 71.527344 113.460938 C 71.164062 113.460938 70.800781 113.425781 70.441406 113.355469 C 70.082031 113.285156 69.730469 113.179688 69.394531 113.039062 C 69.054688 112.898438 68.734375 112.726562 68.429688 112.523438 C 68.125 112.320312 67.84375 112.085938 67.582031 111.828125 C 67.324219 111.570312 67.09375 111.285156 66.890625 110.980469 C 66.683594 110.675781 66.511719 110.355469 66.375 110.015625 C 66.234375 109.679688 66.128906 109.328125 66.054688 108.96875 C 65.984375 108.609375 65.949219 108.25 65.949219 107.882812 C 65.949219 107.515625 65.984375 107.152344 66.054688 106.792969 C 66.128906 106.433594 66.234375 106.085938 66.375 105.746094 C 66.511719 105.40625 66.683594 105.085938 66.890625 104.78125 C 67.09375 104.476562 67.324219 104.195312 67.582031 103.9375 C 67.84375 103.675781 68.125 103.445312 68.429688 103.242188 C 68.734375 103.039062 69.054688 102.867188 69.394531 102.726562 C 69.730469 102.585938 70.082031 102.480469 70.441406 102.410156 C 70.800781 102.335938 71.164062 102.300781 71.527344 102.300781 C 71.894531 102.300781 72.257812 102.335938 72.617188 102.410156 C 72.976562 102.480469 73.328125 102.585938 73.664062 102.726562 C 74.003906 102.867188 74.324219 103.039062 74.628906 103.242188 C 74.933594 103.445312 75.214844 103.675781 75.476562 103.9375 C 75.734375 104.195312 75.964844 104.476562 76.167969 104.78125 C 76.371094 105.085938 76.542969 105.40625 76.683594 105.746094 C 76.824219 106.085938 76.929688 106.433594 77.003906 106.792969 C 77.074219 107.152344 77.109375 107.515625 77.109375 107.882812 Z M 77.109375 107.882812 " fill-opacity="1" fill-rule="nonzero"/><g clip-path="url(#9df3c71481)"><path fill="#fffffe" d="M 290.664062 140.386719 C 290.664062 140.386719 288.460938 122.515625 308.328125 102.925781 C 328.195312 83.335938 348.953125 97.050781 360.113281 81.148438 C 360.113281 81.148438 360.769531 97.625 344.980469 107.902344 C 344.980469 107.902344 355.429688 108.324219 362.421875 102.195312 C 362.421875 102.195312 350.042969 155.800781 308.144531 156.1875 C 308.144531 156.195312 295.292969 161.179688 290.664062 140.386719 Z M 290.664062 140.386719 " fill-opacity="1" fill-rule="nonzero"/></g><g clip-path="url(#82cf844dc4)"><path fill="#b26e50" d="M 291.277344 174.839844 L 273.800781 159.035156 C 273.800781 159.035156 117.300781 331.652344 126.257812 339.761719 C 135.214844 347.871094 291.277344 174.839844 291.277344 174.839844 Z M 291.277344 174.839844 " fill-opacity="1" fill-rule="nonzero"/></g><path fill="#e5d7c4" d="M 290.671875 140.378906 L 308.152344 156.1875 L 284.085938 182.800781 L 266.605469 166.996094 Z M 290.671875 140.378906 " fill-opacity="1" fill-rule="nonzero"/><g clip-path="url(#91b921b585)"><path fill="#4c6a4b" d="M 362.421875 102.199219 C 355.429688 108.34375 344.980469 107.90625 344.980469 107.90625 C 360.769531 97.632812 360.113281 81.152344 360.113281 81.152344 C 350.550781 94.777344 333.9375 86.675781 316.867188 96.398438 C 316.851562 98.585938 317.253906 100.691406 318.066406 102.722656 C 318.878906 104.75 320.042969 106.550781 321.5625 108.125 C 324.148438 110.742188 327.703125 112.648438 329.039062 116.089844 C 330.25 119.265625 329.128906 122.878906 327.363281 125.792969 C 325.597656 128.707031 323.269531 131.203125 321.683594 134.203125 C 320.949219 135.636719 320.402344 137.140625 320.042969 138.714844 C 319.683594 140.285156 319.527344 141.878906 319.566406 143.492188 C 319.609375 145.105469 319.851562 146.6875 320.289062 148.238281 C 320.726562 149.789062 321.351562 151.261719 322.160156 152.660156 C 322.355469 152.992188 322.566406 153.324219 322.789062 153.648438 C 353 142.980469 362.421875 102.199219 362.421875 102.199219 Z M 362.421875 102.199219 " fill-opacity="1" fill-rule="nonzero"/></g></g></g></svg>
