<svg xmlns="http://www.w3.org/2000/svg" viewBox="0 0 120 120" role="img" aria-labelledby="logoTitle logoDesc">
  <title id="logoTitle">Saintpaulia Studio logo</title>
  <desc id="logoDesc">Stylized African violet blossom within a circular frame</desc>
  <defs>
    <radialGradient id="petalGradient" cx="50%" cy="45%" r="55%">
      <stop offset="0%" stop-color="#f7f0ff" />
      <stop offset="55%" stop-color="#c7a8ff" />
      <stop offset="100%" stop-color="#8457d8" />
    </radialGradient>
    <linearGradient id="leafGradient" x1="0%" y1="0%" x2="0%" y2="100%">
      <stop offset="0%" stop-color="#57c18c" />
      <stop offset="100%" stop-color="#2f855a" />
    </linearGradient>
  </defs>
  <circle cx="60" cy="60" r="56" fill="#f1f8f4" stroke="#2f855a" stroke-width="4" />
  <g transform="translate(60 60)">
    <g transform="rotate(-8)">
      <path d="M0-36c10.5 0 19 8.5 19 19 0 8.4-5.3 15.7-13 18.2 2.4 1.2 4.3 3 5.6 5.2C15.8 9.1 18 12.5 18 17c0 10.5-8.5 19-19 19s-19-8.5-19-19c0-4.5 2.2-7.9 6.4-10.6 1.3-2.2 3.2-4 5.6-5.2-7.7-2.5-13-9.8-13-18.2 0-10.5 8.5-19 19-19z" fill="url(#petalGradient)" stroke="#5b34a7" stroke-width="3" />
      <circle r="8" fill="#ffd966" stroke="#c27c15" stroke-width="2" />
    </g>
    <g transform="translate(0 32)">
      <path d="M-32 0c6.5-12.5 19-20 32-20s25.5 7.5 32 20c-8.5 6-19.5 9.5-32 9.5S-23.5 6-32 0z" fill="url(#leafGradient)" stroke="#2f855a" stroke-width="3" />
    </g>
  </g>
</svg>
